<svg width="123" height="128" viewBox="0 0 123 128" fill="none" xmlns="http://www.w3.org/2000/svg">
<path d="M0.32 124L4.576 113.328H5.728L9.968 124H8.736L7.456 120.672H2.848L1.568 124H0.32ZM3.28 119.568H7.024L5.152 114.688L3.28 119.568ZM12.0093 114.592V113.328H13.2893V114.592H12.0093ZM10.4413 127.088V126.016C10.9106 126.005 11.2573 125.936 11.4813 125.808C11.7159 125.691 11.8706 125.509 11.9453 125.264C12.0306 125.029 12.0733 124.741 12.0733 124.4V116.016H13.2253V124.464C13.2253 126.213 12.2973 127.088 10.4413 127.088ZM19.1225 124.24C17.8745 124.24 16.9465 123.872 16.3385 123.136C15.7412 122.389 15.4425 121.355 15.4425 120.032C15.4425 118.645 15.7572 117.605 16.3865 116.912C17.0265 116.219 17.9278 115.872 19.0905 115.872C19.9545 115.872 20.6585 116.048 21.2025 116.4C21.7465 116.741 22.1465 117.227 22.4025 117.856C22.6585 118.475 22.7865 119.2 22.7865 120.032C22.7865 121.344 22.4665 122.373 21.8265 123.12C21.1972 123.867 20.2958 124.24 19.1225 124.24ZM19.1065 123.184C19.7572 123.184 20.2638 123.045 20.6265 122.768C20.9892 122.48 21.2452 122.101 21.3945 121.632C21.5545 121.152 21.6345 120.619 21.6345 120.032C21.6345 119.083 21.4478 118.331 21.0745 117.776C20.7012 117.211 20.0452 116.928 19.1065 116.928C18.4665 116.928 17.9652 117.067 17.6025 117.344C17.2398 117.621 16.9785 117.995 16.8185 118.464C16.6692 118.923 16.5945 119.445 16.5945 120.032C16.5945 120.971 16.7812 121.733 17.1545 122.32C17.5278 122.896 18.1785 123.184 19.1065 123.184ZM28.2959 124.24C27.2292 124.24 26.4025 123.968 25.8159 123.424C25.2399 122.869 24.9519 122.085 24.9519 121.072V116.016H26.1039V120.816C26.1039 121.627 26.2799 122.224 26.6319 122.608C26.9945 122.981 27.5492 123.168 28.2959 123.168C29.0425 123.168 29.5919 122.981 29.9439 122.608C30.3065 122.224 30.4879 121.627 30.4879 120.816V116.016H31.6399V121.072C31.6399 122.085 31.3465 122.869 30.7599 123.424C30.1839 123.968 29.3625 124.24 28.2959 124.24ZM36.7139 124.128C36.1485 124.128 35.6739 123.957 35.2899 123.616C34.9059 123.264 34.7139 122.747 34.7139 122.064V117.072H33.3219V116.016H34.7139V113.76H35.8659V116.016H37.9299V117.072H35.8659V121.696C35.8659 122.144 35.9352 122.48 36.0739 122.704C36.2125 122.928 36.4952 123.04 36.9219 123.04C37.3165 123.04 37.6525 122.976 37.9299 122.848V123.936C37.7805 123.989 37.5885 124.032 37.3539 124.064C37.1299 124.107 36.9165 124.128 36.7139 124.128ZM43.3104 124.24C42.169 124.24 41.2677 123.888 40.6064 123.184C39.945 122.469 39.6144 121.408 39.6144 120C39.6144 118.624 39.9237 117.595 40.5424 116.912C41.1717 116.219 42.0304 115.872 43.1184 115.872C43.9717 115.872 44.6544 116.064 45.1664 116.448C45.689 116.832 46.0624 117.349 46.2864 118C46.5104 118.651 46.617 119.387 46.6064 120.208H40.7824C40.7824 121.179 41.0064 121.92 41.4544 122.432C41.913 122.933 42.553 123.184 43.3744 123.184C43.961 123.184 44.4784 123.12 44.9264 122.992C45.385 122.864 45.7797 122.699 46.1104 122.496V123.68C45.3317 124.053 44.3984 124.24 43.3104 124.24ZM43.1184 116.928C42.4464 116.928 41.9237 117.088 41.5504 117.408C41.177 117.717 40.937 118.299 40.8304 119.152H45.3904C45.3477 118.405 45.1397 117.851 44.7664 117.488C44.393 117.115 43.8437 116.928 43.1184 116.928ZM48.7644 124V116.656C48.8924 116.603 49.1377 116.512 49.5004 116.384C49.8737 116.256 50.3164 116.139 50.8284 116.032C51.351 115.925 51.8897 115.872 52.4444 115.872C52.5297 115.872 52.615 115.883 52.7004 115.904C52.7857 115.925 52.871 115.947 52.9564 115.968V116.992C52.4017 116.928 51.879 116.928 51.3884 116.992C50.8977 117.056 50.407 117.131 49.9164 117.216V124H48.7644ZM62.7803 124.24C61.7136 124.24 60.8869 123.968 60.3003 123.424C59.7243 122.869 59.4363 122.085 59.4363 121.072V116.016H60.5883V120.816C60.5883 121.627 60.7643 122.224 61.1163 122.608C61.4789 122.981 62.0336 123.168 62.7803 123.168C63.5269 123.168 64.0763 122.981 64.4283 122.608C64.7909 122.224 64.9723 121.627 64.9723 120.816V116.016H66.1243V121.072C66.1243 122.085 65.8309 122.869 65.2443 123.424C64.6683 123.968 63.8469 124.24 62.7803 124.24ZM68.6863 116.656C69.7209 116.133 70.8463 115.872 72.0623 115.872C73.2249 115.872 74.0409 116.128 74.5103 116.64C74.9903 117.152 75.2303 117.872 75.2303 118.8V124H74.0783V118.8C74.0783 118.608 74.0516 118.405 73.9983 118.192C73.9556 117.979 73.8649 117.776 73.7263 117.584C73.5876 117.381 73.3743 117.221 73.0863 117.104C72.7983 116.976 72.4143 116.912 71.9343 116.912C71.2729 116.912 70.5743 117.019 69.8383 117.232V124H68.6863V116.656ZM88.9803 118.8V124H87.8283V118.8C87.8283 118.608 87.8016 118.405 87.7483 118.192C87.7056 117.979 87.6149 117.776 87.4763 117.584C87.3376 117.381 87.1243 117.221 86.8363 117.104C86.5483 116.976 86.1643 116.912 85.6843 116.912C85.0229 116.912 84.3243 117.019 83.5883 117.232V124H82.4363V116.656C83.4709 116.133 84.5963 115.872 85.8123 115.872C86.3456 115.872 86.8043 115.931 87.1883 116.048C87.5723 116.155 87.8923 116.315 88.1483 116.528C88.5749 116.304 89.0123 116.139 89.4603 116.032C89.9083 115.925 90.3669 115.872 90.8363 115.872C91.9989 115.872 92.8149 116.128 93.2843 116.64C93.7643 117.152 94.0043 117.872 94.0043 118.8V124H92.8523V118.8C92.8523 118.608 92.8256 118.405 92.7723 118.192C92.7296 117.979 92.6389 117.776 92.5003 117.584C92.3616 117.381 92.1483 117.221 91.8603 117.104C91.5723 116.976 91.1883 116.912 90.7083 116.912C90.3989 116.912 90.0789 116.955 89.7483 117.04C89.4283 117.115 89.1029 117.253 88.7723 117.456C88.9109 117.829 88.9803 118.277 88.9803 118.8ZM99.8573 124.24C98.7159 124.24 97.8146 123.888 97.1533 123.184C96.4919 122.469 96.1613 121.408 96.1613 120C96.1613 118.624 96.4706 117.595 97.0893 116.912C97.7186 116.219 98.5773 115.872 99.6653 115.872C100.519 115.872 101.201 116.064 101.713 116.448C102.236 116.832 102.609 117.349 102.833 118C103.057 118.651 103.164 119.387 103.153 120.208H97.3293C97.3293 121.179 97.5533 121.92 98.0013 122.432C98.4599 122.933 99.0999 123.184 99.9213 123.184C100.508 123.184 101.025 123.12 101.473 122.992C101.932 122.864 102.327 122.699 102.657 122.496V123.68C101.879 124.053 100.945 124.24 99.8573 124.24ZM99.6653 116.928C98.9933 116.928 98.4706 117.088 98.0973 117.408C97.7239 117.717 97.4839 118.299 97.3773 119.152H101.937C101.895 118.405 101.687 117.851 101.313 117.488C100.94 117.115 100.391 116.928 99.6653 116.928ZM105.311 116.656C106.346 116.133 107.471 115.872 108.687 115.872C109.85 115.872 110.666 116.128 111.135 116.64C111.615 117.152 111.855 117.872 111.855 118.8V124H110.703V118.8C110.703 118.608 110.677 118.405 110.623 118.192C110.581 117.979 110.49 117.776 110.351 117.584C110.213 117.381 109.999 117.221 109.711 117.104C109.423 116.976 109.039 116.912 108.559 116.912C107.898 116.912 107.199 117.019 106.463 117.232V124H105.311V116.656ZM117.765 124.24C116.698 124.24 115.871 123.968 115.285 123.424C114.709 122.869 114.421 122.085 114.421 121.072V116.016H115.573V120.816C115.573 121.627 115.749 122.224 116.101 122.608C116.463 122.981 117.018 123.168 117.765 123.168C118.511 123.168 119.061 122.981 119.413 122.608C119.775 122.224 119.957 121.627 119.957 120.816V116.016H121.109V121.072C121.109 122.085 120.815 122.869 120.229 123.424C119.653 123.968 118.831 124.24 117.765 124.24Z" fill="white"/>
<path d="M67 25H57V45H37V55H57V75H67V55H87V45H67V25ZM62 0C34.4 0 12 22.4 12 50C12 77.6 34.4 100 62 100C89.6 100 112 77.6 112 50C112 22.4 89.6 0 62 0ZM62 90C39.95 90 22 72.05 22 50C22 27.95 39.95 10 62 10C84.05 10 102 27.95 102 50C102 72.05 84.05 90 62 90Z" fill="white"/>
</svg>
