<svg width="165" height="49" viewBox="0 0 165 49" fill="none" xmlns="http://www.w3.org/2000/svg">
<path d="M22.1621 26.4933L19.825 26.5513V30.5776L18.506 30.6104V20.6572L21.7999 20.5755C22.9207 20.5477 23.7817 20.7815 24.3831 21.277C24.9891 21.7724 25.292 22.5077 25.292 23.483C25.292 24.1028 25.1235 24.647 24.7863 25.1157C24.4537 25.5842 23.989 25.9398 23.3922 26.1825L25.7294 30.3491V30.4311L24.3216 30.4661L22.1621 26.4933ZM19.825 25.478L21.8409 25.428C22.4924 25.4118 23.0095 25.2304 23.3922 24.8837C23.7795 24.5368 23.9731 24.0808 23.9731 23.5157C23.9731 22.9005 23.7886 22.4334 23.4195 22.1144C23.0551 21.7953 22.5266 21.6421 21.8341 21.6547L19.825 21.7046V25.478ZM36.233 25.5699L31.9208 25.6769V29.2043L36.93 29.08V30.1532L30.6087 30.3101V20.3569L36.8617 20.2018V21.2818L31.9208 21.4044V24.6037L36.233 24.4967V25.5699ZM44.9666 25.5173C43.8413 25.2216 43.0213 24.8455 42.5064 24.3888C41.9962 23.9275 41.7411 23.3505 41.7411 22.6578C41.7411 21.874 42.0531 21.2191 42.6773 20.6932C43.306 20.1626 44.1215 19.8849 45.1238 19.86C45.8072 19.8431 46.4154 19.9601 46.9484 20.2112C47.486 20.4622 47.9006 20.8165 48.1922 21.2741C48.4883 21.7316 48.6364 22.2361 48.6364 22.7875L47.3175 22.8202C47.3175 22.2187 47.1261 21.7518 46.7434 21.4195C46.3607 21.0826 45.8209 20.9228 45.1238 20.9401C44.4769 20.9562 43.9712 21.1123 43.6067 21.4084C43.2468 21.6999 43.0668 22.0986 43.0668 22.6044C43.0668 23.01 43.2377 23.3499 43.5794 23.6239C43.9256 23.8933 44.511 24.134 45.3357 24.346C46.1648 24.5578 46.8118 24.7993 47.2765 25.0703C47.7457 25.3366 48.092 25.6539 48.3152 26.0221C48.543 26.3901 48.6569 26.827 48.6569 27.3329C48.6569 28.1395 48.3425 28.7945 47.7138 29.2977C47.0851 29.7964 46.2446 30.0588 45.1921 30.0849C44.5088 30.1019 43.8709 29.9878 43.2787 29.7427C42.6864 29.4931 42.2285 29.1444 41.9051 28.6967C41.5862 28.2489 41.4267 27.7356 41.4267 27.1568L42.7456 27.1241C42.7456 27.7257 42.9666 28.1964 43.4085 28.5364C43.855 28.8717 44.4495 29.0301 45.1921 29.0117C45.8846 28.9945 46.4154 28.84 46.7844 28.5483C47.1535 28.2566 47.338 27.8669 47.338 27.3793C47.338 26.8917 47.1671 26.5199 46.8254 26.2641C46.4837 26.0037 45.8641 25.7547 44.9666 25.5173ZM60.4179 20.6973L57.2197 20.7767V29.6497L55.9144 29.6821V20.8091L52.723 20.8883V19.8082L60.4179 19.6172V20.6973ZM72.7462 24.6092C72.7462 25.5844 72.5822 26.4407 72.2541 27.178C71.9261 27.9108 71.4614 28.476 70.86 28.8738C70.2586 29.2715 69.557 29.4803 68.7552 29.5002C67.9716 29.5196 67.2768 29.3455 66.6709 28.9777C66.065 28.6054 65.5934 28.0679 65.2563 27.3653C64.9237 26.6581 64.7529 25.8352 64.7437 24.8966V24.1788C64.7437 23.2218 64.91 22.3723 65.2426 21.6303C65.5752 20.8884 66.0445 20.3162 66.6504 19.9138C67.2609 19.5067 67.9579 19.2934 68.7415 19.274C69.5388 19.2542 70.2404 19.4305 70.8464 19.8028C71.4568 20.1705 71.9261 20.7171 72.2541 21.4427C72.5822 22.1637 72.7462 23.0096 72.7462 23.9803V24.6092ZM71.4409 23.999C71.4409 22.8187 71.204 21.9199 70.7302 21.3028C70.2564 20.6811 69.5935 20.3808 68.7415 20.4019C67.9124 20.4225 67.2586 20.7554 66.7802 21.4008C66.3064 22.0414 66.0627 22.9225 66.049 24.0439V24.7754C66.049 25.9192 66.2882 26.8134 66.7666 27.4578C67.2495 28.0975 67.9124 28.4069 68.7552 28.3859C69.6026 28.3649 70.2586 28.041 70.7234 27.4143C71.1881 26.7829 71.4272 25.8906 71.4409 24.7373V23.999ZM80.6187 25.3572L77.2838 25.4399V24.4077L80.6187 24.325V25.3572ZM92.8718 27.4594C92.5347 27.9508 92.0631 28.3248 91.4572 28.5814C90.8558 28.8333 90.1542 28.9692 89.3524 28.9891C88.5414 29.0092 87.8216 28.838 87.1929 28.4753C86.5642 28.1081 86.0767 27.5779 85.7305 26.8846C85.3888 26.1913 85.2134 25.3822 85.2042 24.4573V23.5891C85.2042 22.0898 85.5528 20.919 86.2498 20.0768C86.9514 19.2346 87.9355 18.7977 89.202 18.7663C90.2408 18.7405 91.0768 18.9864 91.7101 19.5038C92.3433 20.0168 92.7306 20.7591 92.8718 21.7309L91.5597 21.7634C91.3137 20.4525 90.5301 19.8134 89.2089 19.8462C88.3296 19.868 87.6621 20.1945 87.2066 20.8256C86.7555 21.452 86.5277 22.3509 86.5232 23.5222V24.3357C86.5232 25.4522 86.7783 26.3346 87.2886 26.9827C87.7988 27.6263 88.489 27.9373 89.3592 27.9157C89.8513 27.9035 90.2818 27.8381 90.6508 27.7196C91.0198 27.601 91.3251 27.4089 91.5665 27.1431V24.9078L89.2635 24.9649V23.8985L92.8718 23.809V27.4594ZM105.542 18.4975V25.2651C105.537 26.204 105.241 26.9793 104.653 27.5909C104.07 28.2023 103.277 28.557 102.275 28.6548L101.927 28.6771C100.838 28.7041 99.9699 28.4317 99.3229 27.8599C98.676 27.288 98.348 26.4872 98.3389 25.4575V18.6763L99.6373 18.644V25.3843C99.6373 26.1043 99.8355 26.66 100.232 27.0512C100.628 27.4378 101.193 27.622 101.927 27.6038C102.669 27.5854 103.236 27.3731 103.628 26.9669C104.025 26.5606 104.223 25.9974 104.223 25.2773V18.5303L105.542 18.4975ZM116.708 23.573L112.396 23.68V27.2073L117.405 27.083V28.1563L111.084 28.3131V18.36L117.337 18.2048V19.2849L112.396 19.4075V22.6067L116.708 22.4997V23.573ZM125.442 23.5203C124.317 23.2247 123.496 22.8486 122.982 22.3919C122.471 21.9306 122.216 21.3536 122.216 20.6609C122.216 19.8771 122.528 19.2222 123.153 18.6963C123.781 18.1657 124.597 17.888 125.599 17.8631C126.282 17.8462 126.891 17.9632 127.424 18.2143C127.961 18.4653 128.376 18.8196 128.667 19.2772C128.964 19.7347 129.112 20.2392 129.112 20.7906L127.793 20.8233C127.793 20.2218 127.601 19.7548 127.219 19.4225C126.836 19.0857 126.296 18.9259 125.599 18.9432C124.952 18.9592 124.446 19.1153 124.082 19.4115C123.722 19.703 123.542 20.1017 123.542 20.6075C123.542 21.0131 123.713 21.353 124.055 21.627C124.401 21.8964 124.986 22.1371 125.811 22.3491C126.64 22.5609 127.287 22.8023 127.752 23.0734C128.221 23.3397 128.567 23.657 128.79 24.0251C129.018 24.3932 129.132 24.8301 129.132 25.336C129.132 26.1426 128.818 26.7976 128.189 27.3008C127.56 27.7995 126.72 28.0619 125.667 28.088C124.984 28.1049 124.346 27.9909 123.754 27.7458C123.162 27.4962 122.704 27.1475 122.38 26.6998C122.061 26.252 121.902 25.7387 121.902 25.1599L123.221 25.1272C123.221 25.7288 123.442 26.1995 123.884 26.5395C124.33 26.8747 124.925 27.0332 125.667 27.0147C126.36 26.9976 126.891 26.8431 127.26 26.5514C127.629 26.2597 127.813 25.87 127.813 25.3824C127.813 24.8948 127.642 24.523 127.301 24.2672C126.959 24.0068 126.339 23.7578 125.442 23.5203ZM140.893 18.7004L137.695 18.7798V27.6528L136.39 27.6852V18.8122L133.198 18.8913V17.8113L140.893 17.6203V18.7004Z" fill="white"/>
<path d="M70.5588 34.2678C70.344 34.2705 70.1721 34.2023 70.0432 34.0635C69.9143 33.9237 69.8548 33.7357 69.8646 33.4996L69.8667 33.4498C69.8732 33.2927 69.9088 33.1523 69.9735 33.0287C70.0392 32.904 70.1272 32.8064 70.2375 32.7358C70.3488 32.6642 70.4675 32.6276 70.5935 32.6261C70.7995 32.6236 70.9568 32.6894 71.0654 32.8236C71.174 32.9578 71.2231 33.1513 71.2125 33.404L71.2079 33.5167L70.1342 33.5299C70.1316 33.686 70.1718 33.8118 70.2546 33.9073C70.3385 34.0018 70.4479 34.0483 70.5826 34.0466C70.6783 34.0455 70.7602 34.0249 70.8282 33.9851C70.8962 33.9453 70.9565 33.8928 71.009 33.8278L71.1691 33.9546C71.0278 34.1601 70.8244 34.2645 70.5588 34.2678ZM70.5842 32.8486C70.4748 32.8499 70.3814 32.891 70.3038 32.972C70.2263 33.0519 70.1758 33.1637 70.1523 33.3073L70.9461 33.2976L70.947 33.2771C70.9449 33.1396 70.9122 33.0337 70.8489 32.9594C70.7857 32.8841 70.6975 32.8472 70.5842 32.8486ZM73.1774 33.7865C73.1804 33.7134 73.155 33.6571 73.101 33.6178C73.048 33.5775 72.9533 33.5435 72.8168 33.516C72.6813 33.4884 72.5739 33.4546 72.4946 33.4146C72.4162 33.3746 72.3587 33.3265 72.3219 33.2704C72.2862 33.2143 72.27 33.1472 72.2732 33.0692C72.2786 32.9394 72.3379 32.8289 72.451 32.7378C72.5651 32.6467 72.7075 32.6001 72.8784 32.598C73.0581 32.5958 73.2017 32.6404 73.3091 32.7317C73.4176 32.823 73.4688 32.9408 73.4628 33.0853L73.1903 33.0886C73.1934 33.0144 73.1643 32.9509 73.1031 32.898C73.0428 32.8451 72.9649 32.8193 72.8692 32.8205C72.7705 32.8217 72.6925 32.8441 72.6351 32.8877C72.5776 32.9313 72.5475 32.9878 72.5446 33.057C72.5418 33.1224 72.5657 33.1714 72.616 33.2039C72.6664 33.2365 72.7584 33.267 72.8919 33.2956C73.0263 33.3242 73.1347 33.3589 73.2169 33.3999C73.2991 33.4408 73.359 33.4908 73.3966 33.5498C73.4352 33.6078 73.4527 33.6793 73.4492 33.7642C73.4433 33.9057 73.3819 34.02 73.2651 34.1073C73.1482 34.1936 72.9995 34.2378 72.8189 34.24C72.6919 34.2416 72.5806 34.2205 72.4848 34.1768C72.389 34.1332 72.3149 34.0717 72.2626 33.9923C72.2113 33.912 72.1876 33.825 72.1915 33.7314L72.4625 33.728C72.4636 33.8187 72.4967 33.8905 72.5618 33.9433C72.628 33.9952 72.7167 34.0204 72.8281 34.019C72.9306 34.0178 73.0135 33.9963 73.0767 33.9545C73.1409 33.9118 73.1745 33.8558 73.1774 33.7865ZM74.9775 32.2182L74.9615 32.6016L75.2574 32.598L75.2487 32.8073L74.9528 32.8109L74.9119 33.793C74.9093 33.8564 74.9205 33.9041 74.9455 33.9359C74.9706 33.9668 75.0149 33.9819 75.0783 33.9811C75.1096 33.9807 75.1528 33.9744 75.208 33.962L75.1988 34.1815C75.1267 34.2019 75.057 34.2125 74.9896 34.2133C74.8685 34.2148 74.7787 34.1794 74.7203 34.1069C74.6618 34.0345 74.6354 33.931 74.641 33.7963L74.6818 32.8143L74.3933 32.8178L74.402 32.6085L74.6906 32.605L74.7065 32.2215L74.9775 32.2182ZM76.2652 34.0265C76.2671 33.9797 76.2824 33.9405 76.3111 33.9089C76.3407 33.8773 76.3833 33.8612 76.439 33.8605C76.4947 33.8599 76.536 33.8749 76.563 33.9058C76.591 33.9367 76.604 33.9755 76.6021 34.0224C76.6002 34.0672 76.584 34.105 76.5534 34.1356C76.5239 34.1662 76.4813 34.1818 76.4256 34.1825C76.3699 34.1832 76.3286 34.1686 76.3015 34.1387C76.2754 34.1088 76.2633 34.0714 76.2652 34.0265ZM79.9021 34.1237L78.5047 34.1409L78.5128 33.9462L79.2852 33.1175C79.3997 32.9923 79.4791 32.8909 79.5233 32.8133C79.5685 32.7347 79.5929 32.6539 79.5963 32.571C79.6009 32.4598 79.5711 32.369 79.5066 32.2986C79.4422 32.2282 79.3539 32.1936 79.2416 32.195C79.1068 32.1967 79.0002 32.2365 78.9218 32.3145C78.8445 32.3915 78.8029 32.4983 78.7972 32.635L78.5263 32.6383C78.5344 32.4422 78.604 32.2828 78.735 32.1603C78.867 32.0377 79.0389 31.9752 79.2508 31.9726C79.4491 31.9701 79.6036 32.0204 79.7145 32.1234C79.8254 32.2254 79.8773 32.3628 79.8701 32.5355C79.8614 32.7452 79.7172 32.9967 79.4376 33.2897L78.8406 33.9159L79.9113 33.9027L79.9021 34.1237ZM82.3084 33.1857C82.2952 33.5028 82.2312 33.7391 82.1164 33.8946C82.0016 34.0501 81.8289 34.1293 81.5985 34.1321C81.371 34.1349 81.2056 34.0618 81.1025 33.9129C80.9995 33.763 80.9522 33.5383 80.9608 33.2388L80.9758 32.8773C80.9888 32.5641 81.0527 32.3307 81.1675 32.1772C81.2822 32.0237 81.4553 31.9455 81.6867 31.9426C81.9162 31.9398 82.082 32.0114 82.1843 32.1574C82.2866 32.3024 82.3328 32.5281 82.323 32.8344L82.3084 33.1857ZM82.0528 32.8187C82.0624 32.5894 82.0371 32.423 81.977 32.3194C81.9169 32.2148 81.8171 32.1634 81.6774 32.1651C81.5388 32.1668 81.4355 32.2202 81.3677 32.3254C81.2999 32.4306 81.2605 32.5915 81.2495 32.8081L81.2315 33.2414C81.2219 33.4716 81.248 33.6415 81.3098 33.7509C81.3727 33.8594 81.4719 33.9128 81.6077 33.9111C81.7415 33.9094 81.8427 33.8565 81.9115 33.7523C81.9812 33.6481 82.0222 33.4847 82.0344 33.2622L82.0528 32.8187ZM84.7591 34.064L83.3618 34.0812L83.3699 33.8865L84.1422 33.0578C84.2567 32.9326 84.3361 32.8311 84.3803 32.7536C84.4256 32.675 84.4499 32.5942 84.4534 32.5113C84.458 32.4001 84.4281 32.3092 84.3637 32.2388C84.2993 32.1684 84.2109 32.1339 84.0986 32.1353C83.9639 32.137 83.8573 32.1768 83.7789 32.2548C83.7015 32.3318 83.66 32.4386 83.6543 32.5752L83.3833 32.5786C83.3915 32.3825 83.4611 32.2231 83.5921 32.1006C83.7241 31.978 83.896 31.9155 84.1079 31.9129C84.3061 31.9104 84.4607 31.9607 84.5715 32.0637C84.6825 32.1657 84.7343 32.303 84.7271 32.4757C84.7184 32.6855 84.5742 32.937 84.2946 33.23L83.6976 33.8561L84.7683 33.843L84.7591 34.064ZM86.6809 34.0404L86.4084 34.0437L86.4835 32.2391L85.9288 32.4463L85.9391 32.2005L86.7275 31.8997L86.77 31.8991L86.6809 34.0404Z" fill="white"/>
<path d="M107.572 11.2951L110.839 11.0555C111.054 11.0395 111.054 10.8828 110.839 10.8808L107.558 10.8489C107.489 10.8479 107.419 10.8489 107.348 10.8509L104.017 10.9567C103.975 10.8249 103.926 10.6952 103.868 10.5684L107.336 10.4586C107.415 10.4566 107.493 10.4516 107.572 10.4466L110.839 10.207C111.054 10.1911 111.054 10.0343 110.839 10.0323L107.558 10.0004C107.489 9.99939 107.419 10.0004 107.348 10.0024L103.622 10.1202L102.453 10.1571L98.7906 10.2729C97.292 10.3208 96.0553 10.9168 95.8469 11.6494L91.5971 11.4408C89.7948 11.352 87.9707 11.337 86.1465 11.3949L48.4007 12.5888C47.4063 12.6207 46.5547 12.9511 46.1895 13.3953C46.1736 13.4133 46.1597 13.4323 46.1458 13.4522C46.1319 13.4702 46.12 13.4892 46.1081 13.5091C46.0248 13.6449 45.989 13.7876 46.0029 13.9344C46.0704 14.5782 47.182 15.0384 48.4702 14.9975L85.6999 13.8186C87.8198 13.7517 89.9357 13.599 92.0299 13.3634L95.8191 12.9371C95.9065 13.6489 97.0816 14.1779 98.5246 14.132L102.453 14.0072L103.622 13.9703L107.334 13.8525C107.413 13.8505 107.491 13.8455 107.57 13.8405L110.837 13.601C111.052 13.585 111.052 13.4283 110.837 13.4263L107.556 13.3943C107.487 13.3933 107.417 13.3943 107.346 13.3963L103.864 13.5061C103.922 13.3764 103.971 13.2436 104.013 13.1088L107.332 13.004C107.411 13.002 107.489 12.997 107.568 12.9921L110.835 12.7525C111.05 12.7365 111.05 12.5798 110.835 12.5778L107.554 12.5458C107.485 12.5448 107.415 12.5458 107.344 12.5478L104.124 12.6497C104.148 12.5199 104.164 12.3881 104.174 12.2554L107.33 12.1555C107.409 12.1535 107.487 12.1486 107.566 12.1436L110.833 11.904C111.048 11.888 111.048 11.7313 110.833 11.7293L107.552 11.6974C107.483 11.6964 107.413 11.6974 107.342 11.6994L104.172 11.8002C104.164 11.6674 104.146 11.5376 104.124 11.4089L107.33 11.3071C107.415 11.3051 107.493 11.3011 107.572 11.2951Z" fill="white"/>
<path d="M46.8714 37.6544L69.399 37.0513L83.7148 36.6684L108.603 36.0021C109.595 35.9751 110.449 36.2096 110.812 36.5655C110.828 36.5799 110.842 36.595 110.856 36.6111C110.869 36.6254 110.881 36.6414 110.893 36.6575C110.975 36.7671 111.012 36.886 110.996 37.0109C110.929 37.5591 109.815 38.007 108.529 38.0415L80.1517 38.8006C79.4411 38.82 78.5498 39.009 78.5498 39.3109C78.5498 40.0439 76.8666 39.9587 75.3222 40L51.7664 39.4551C48.5825 39.4096 46 39.4062 46 38.0474C46.002 37.8433 46.391 37.6679 46.8714 37.6544Z" fill="white"/>
<path d="M32.4396 35L63.0769 34.2578V34L32.4396 34.7422V35Z" fill="white"/>
<path d="M32.4396 34L63.0769 33.2564V33L32.4396 33.7422V34Z" fill="white"/>
<path d="M32.4396 33L63.0769 32.2578V32L32.4396 32.7422V33Z" fill="white"/>
<path d="M91.9121 33L122.549 32.2578V32L91.9121 32.7422V33Z" fill="white"/>
<path d="M91.9121 34L122.549 33.2578V33L91.9121 33.7422V34Z" fill="white"/>
<path d="M91.9121 32L122.549 31.2578V31L91.9121 31.7422V32Z" fill="white"/>
<path d="M14 33.1604C23.9459 39.9385 49.5183 44.4569 79.5 43.9632C109.482 43.4686 135.054 38.1062 145 31" stroke="white" stroke-width="2" stroke-miterlimit="10" stroke-linecap="round"/>
<path d="M16.9073 16.9323C26.8974 10.3865 51.5202 5.47676 80.3094 5.01792C109.102 4.55908 133.721 8.68401 143.711 14.9116" stroke="white" stroke-width="2" stroke-miterlimit="10" stroke-linecap="round"/>
<path d="M10 33.72C19.7783 42.5898 47.647 48.5873 80.5 47.9542C113.353 47.3202 141.219 40.2478 151 31" stroke="white" stroke-width="2" stroke-miterlimit="10" stroke-linecap="round"/>
<path d="M11 17C20.8687 8.27988 47.8109 1.64527 79.5 1.04403C111.189 0.442798 138.131 6.05522 148 14.4008" stroke="white" stroke-width="2" stroke-miterlimit="10" stroke-linecap="round"/>
</svg>
