<svg width="28" height="27" viewBox="0 0 28 27" fill="none" xmlns="http://www.w3.org/2000/svg">
<path d="M20.6219 17.3773L16.6877 14.065L20 10.1309C20.4065 9.6481 20.3446 8.92698 19.8618 8.52053L18.9876 7.78446C18.5048 7.37801 17.7837 7.43989 17.3773 7.92264L14.065 11.8568L10.1308 8.54448C9.64805 8.13803 8.92692 8.19991 8.52047 8.68266L7.7844 9.55692C7.37796 10.0397 7.43984 10.7608 7.92259 11.1672L11.8567 14.4796L8.54442 18.4137C8.13797 18.8965 8.19986 19.6176 8.68261 20.024L9.55687 20.7601C10.0396 21.1666 10.7607 21.1047 11.1672 20.6219L14.4795 16.6878L18.4137 20.0001C18.8964 20.4065 19.6175 20.3447 20.024 19.8619L20.7601 18.9876C21.1665 18.5049 21.1046 17.7838 20.6219 17.3773Z" fill="black"/>
<path d="M27.5 13.5C27.5 20.6627 21.4731 26.5 14 26.5C6.52686 26.5 0.5 20.6627 0.5 13.5C0.5 6.33728 6.52686 0.5 14 0.5C21.4731 0.5 27.5 6.33728 27.5 13.5Z" stroke="black"/>
</svg>
