<svg width="109" height="128" viewBox="0 0 109 128" fill="none" xmlns="http://www.w3.org/2000/svg">
<path d="M0.32 124L4.576 113.328H5.728L9.968 124H8.736L7.456 120.672H2.848L1.568 124H0.32ZM3.28 119.568H7.024L5.152 114.688L3.28 119.568ZM12.0093 114.592V113.328H13.2893V114.592H12.0093ZM10.4413 127.088V126.016C10.9106 126.005 11.2573 125.936 11.4813 125.808C11.7159 125.691 11.8706 125.509 11.9453 125.264C12.0306 125.029 12.0733 124.741 12.0733 124.4V116.016H13.2253V124.464C13.2253 126.213 12.2973 127.088 10.4413 127.088ZM19.1225 124.24C17.8745 124.24 16.9465 123.872 16.3385 123.136C15.7412 122.389 15.4425 121.355 15.4425 120.032C15.4425 118.645 15.7572 117.605 16.3865 116.912C17.0265 116.219 17.9278 115.872 19.0905 115.872C19.9545 115.872 20.6585 116.048 21.2025 116.4C21.7465 116.741 22.1465 117.227 22.4025 117.856C22.6585 118.475 22.7865 119.2 22.7865 120.032C22.7865 121.344 22.4665 122.373 21.8265 123.12C21.1972 123.867 20.2958 124.24 19.1225 124.24ZM19.1065 123.184C19.7572 123.184 20.2638 123.045 20.6265 122.768C20.9892 122.48 21.2452 122.101 21.3945 121.632C21.5545 121.152 21.6345 120.619 21.6345 120.032C21.6345 119.083 21.4478 118.331 21.0745 117.776C20.7012 117.211 20.0452 116.928 19.1065 116.928C18.4665 116.928 17.9652 117.067 17.6025 117.344C17.2398 117.621 16.9785 117.995 16.8185 118.464C16.6692 118.923 16.5945 119.445 16.5945 120.032C16.5945 120.971 16.7812 121.733 17.1545 122.32C17.5278 122.896 18.1785 123.184 19.1065 123.184ZM28.2959 124.24C27.2292 124.24 26.4025 123.968 25.8159 123.424C25.2399 122.869 24.9519 122.085 24.9519 121.072V116.016H26.1039V120.816C26.1039 121.627 26.2799 122.224 26.6319 122.608C26.9945 122.981 27.5492 123.168 28.2959 123.168C29.0425 123.168 29.5919 122.981 29.9439 122.608C30.3065 122.224 30.4879 121.627 30.4879 120.816V116.016H31.6399V121.072C31.6399 122.085 31.3465 122.869 30.7599 123.424C30.1839 123.968 29.3625 124.24 28.2959 124.24ZM36.7139 124.128C36.1485 124.128 35.6739 123.957 35.2899 123.616C34.9059 123.264 34.7139 122.747 34.7139 122.064V117.072H33.3219V116.016H34.7139V113.76H35.8659V116.016H37.9299V117.072H35.8659V121.696C35.8659 122.144 35.9352 122.48 36.0739 122.704C36.2125 122.928 36.4952 123.04 36.9219 123.04C37.3165 123.04 37.6525 122.976 37.9299 122.848V123.936C37.7805 123.989 37.5885 124.032 37.3539 124.064C37.1299 124.107 36.9165 124.128 36.7139 124.128ZM43.3104 124.24C42.169 124.24 41.2677 123.888 40.6064 123.184C39.945 122.469 39.6144 121.408 39.6144 120C39.6144 118.624 39.9237 117.595 40.5424 116.912C41.1717 116.219 42.0304 115.872 43.1184 115.872C43.9717 115.872 44.6544 116.064 45.1664 116.448C45.689 116.832 46.0624 117.349 46.2864 118C46.5104 118.651 46.617 119.387 46.6064 120.208H40.7824C40.7824 121.179 41.0064 121.92 41.4544 122.432C41.913 122.933 42.553 123.184 43.3744 123.184C43.961 123.184 44.4784 123.12 44.9264 122.992C45.385 122.864 45.7797 122.699 46.1104 122.496V123.68C45.3317 124.053 44.3984 124.24 43.3104 124.24ZM43.1184 116.928C42.4464 116.928 41.9237 117.088 41.5504 117.408C41.177 117.717 40.937 118.299 40.8304 119.152H45.3904C45.3477 118.405 45.1397 117.851 44.7664 117.488C44.393 117.115 43.8437 116.928 43.1184 116.928ZM48.7644 124V116.656C48.8924 116.603 49.1377 116.512 49.5004 116.384C49.8737 116.256 50.3164 116.139 50.8284 116.032C51.351 115.925 51.8897 115.872 52.4444 115.872C52.5297 115.872 52.615 115.883 52.7004 115.904C52.7857 115.925 52.871 115.947 52.9564 115.968V116.992C52.4017 116.928 51.879 116.928 51.3884 116.992C50.8977 117.056 50.407 117.131 49.9164 117.216V124H48.7644ZM62.7803 124.24C61.7136 124.24 60.8869 123.968 60.3003 123.424C59.7243 122.869 59.4363 122.085 59.4363 121.072V116.016H60.5883V120.816C60.5883 121.627 60.7643 122.224 61.1163 122.608C61.4789 122.981 62.0336 123.168 62.7803 123.168C63.5269 123.168 64.0763 122.981 64.4283 122.608C64.7909 122.224 64.9723 121.627 64.9723 120.816V116.016H66.1243V121.072C66.1243 122.085 65.8309 122.869 65.2443 123.424C64.6683 123.968 63.8469 124.24 62.7803 124.24ZM68.6863 116.656C69.7209 116.133 70.8463 115.872 72.0623 115.872C73.2249 115.872 74.0409 116.128 74.5103 116.64C74.9903 117.152 75.2303 117.872 75.2303 118.8V124H74.0783V118.8C74.0783 118.608 74.0516 118.405 73.9983 118.192C73.9556 117.979 73.8649 117.776 73.7263 117.584C73.5876 117.381 73.3743 117.221 73.0863 117.104C72.7983 116.976 72.4143 116.912 71.9343 116.912C71.2729 116.912 70.5743 117.019 69.8383 117.232V124H68.6863V116.656ZM85.5723 124.224C85.2843 124.224 84.9589 124.176 84.5963 124.08C84.2336 123.995 83.8976 123.888 83.5883 123.76V127.472H82.4363V117.456C82.4363 117.125 82.5376 116.859 82.7403 116.656C82.9536 116.453 83.2256 116.299 83.5563 116.192C83.8869 116.075 84.2389 115.995 84.6123 115.952C84.9856 115.899 85.3376 115.872 85.6683 115.872C86.3083 115.872 86.9109 116.005 87.4763 116.272C88.0416 116.539 88.5003 116.992 88.8523 117.632C89.2043 118.261 89.3802 119.12 89.3802 120.208C89.3802 121.435 89.0549 122.411 88.4043 123.136C87.7536 123.861 86.8096 124.224 85.5723 124.224ZM85.5723 123.168C86.4469 123.168 87.0976 122.896 87.5243 122.352C87.9509 121.797 88.1643 121.083 88.1643 120.208C88.1643 119.632 88.1003 119.093 87.9723 118.592C87.8443 118.091 87.5989 117.691 87.2363 117.392C86.8736 117.083 86.3456 116.928 85.6523 116.928C85.0976 116.928 84.6123 116.992 84.1963 117.12C83.7909 117.248 83.5883 117.429 83.5883 117.664V122.608C84.2283 122.981 84.8896 123.168 85.5723 123.168ZM92.6976 124H91.5456V112.976H92.6976V124ZM98.0164 124.24C97.6644 124.24 97.307 124.203 96.9444 124.128C96.5924 124.053 96.2617 123.925 95.9524 123.744C95.6537 123.563 95.4084 123.317 95.2164 123.008C95.035 122.688 94.9444 122.288 94.9444 121.808C94.9444 121.147 95.067 120.619 95.3124 120.224C95.5684 119.819 95.915 119.531 96.3524 119.36C96.8004 119.179 97.3124 119.088 97.8884 119.088C98.4857 119.088 98.9817 119.141 99.3764 119.248C99.771 119.344 100.112 119.477 100.4 119.648V118.704C100.4 118.085 100.219 117.632 99.8564 117.344C99.4937 117.056 98.9764 116.912 98.3044 116.912C97.8777 116.912 97.4244 116.976 96.9444 117.104C96.475 117.221 96.0697 117.413 95.7284 117.68V116.528C96.059 116.315 96.5017 116.155 97.0564 116.048C97.611 115.931 98.1497 115.872 98.6724 115.872C99.547 115.872 100.246 116.085 100.768 116.512C101.302 116.939 101.568 117.579 101.568 118.432V122.304C101.568 122.869 101.398 123.291 101.056 123.568C100.726 123.845 100.288 124.027 99.7444 124.112C99.211 124.197 98.635 124.24 98.0164 124.24ZM96.0964 121.632C96.0964 122.027 96.203 122.341 96.4164 122.576C96.6404 122.811 96.9177 122.976 97.2484 123.072C97.5897 123.168 97.9364 123.216 98.2884 123.216C98.9817 123.216 99.5044 123.168 99.8564 123.072C100.219 122.965 100.4 122.731 100.4 122.368V120.576C100.134 120.448 99.8084 120.341 99.4244 120.256C99.0404 120.171 98.6297 120.128 98.1924 120.128C97.5204 120.128 97.003 120.256 96.6404 120.512C96.2777 120.768 96.0964 121.141 96.0964 121.632ZM106.636 124.128C106.07 124.128 105.596 123.957 105.212 123.616C104.828 123.264 104.636 122.747 104.636 122.064V117.072H103.244V116.016H104.636V113.76H105.788V116.016H107.852V117.072H105.788V121.696C105.788 122.144 105.857 122.48 105.996 122.704C106.134 122.928 106.417 123.04 106.844 123.04C107.238 123.04 107.574 122.976 107.852 122.848V123.936C107.702 123.989 107.51 124.032 107.276 124.064C107.052 124.107 106.838 124.128 106.636 124.128Z" fill="white"/>
<path d="M60 25H50V45H30V55H50V75H60V55H80V45H60V25ZM55 0C27.4 0 5 22.4 5 50C5 77.6 27.4 100 55 100C82.6 100 105 77.6 105 50C105 22.4 82.6 0 55 0ZM55 90C32.95 90 15 72.05 15 50C15 27.95 32.95 10 55 10C77.05 10 95 27.95 95 50C95 72.05 77.05 90 55 90Z" fill="white"/>
</svg>
