<svg width="154" height="144" viewBox="0 0 154 144" fill="none" xmlns="http://www.w3.org/2000/svg">
<path d="M8.22313 78.9544L4.22269 79.1974V86.0997L1.96513 86.2368V69.1743L7.60318 68.8319C9.52152 68.7154 10.9954 69.0634 12.0247 69.8759C13.0619 70.6879 13.5804 71.9298 13.5804 73.6017C13.5804 74.6642 13.2919 75.6075 12.7149 76.4316C12.1456 77.2552 11.3502 77.8934 10.3286 78.3461L14.3291 85.3453V85.4859L11.9194 85.6323L8.22313 78.9544ZM4.22269 77.3575L7.67336 77.148C8.78849 77.0802 9.67358 76.7374 10.3286 76.1195C10.9915 75.5011 11.3229 74.7076 11.3229 73.7388C11.3229 72.6841 11.0071 71.8947 10.3754 71.3706C9.75156 70.846 8.84698 70.6157 7.66166 70.6799L4.22269 70.8888V77.3575ZM26.3655 76.8682L18.9845 77.3164V83.3633L27.5586 82.8426V84.6824L16.7387 85.3396V68.2771L27.4416 67.627V69.4786L18.9845 69.9922V75.4766L26.3655 75.0283V76.8682ZM35.3723 76.6024C33.4462 76.1647 32.0425 75.5702 31.1613 74.8191C30.2879 74.0596 29.8512 73.0861 29.8512 71.8986C29.8512 70.5549 30.3854 69.4131 31.4538 68.4732C32.5299 67.525 33.9258 66.9988 35.6414 66.8946C36.8111 66.8236 37.8521 66.9869 38.7645 67.3846C39.6847 67.7819 40.3943 68.3638 40.8934 69.1303C41.4003 69.8964 41.6537 70.7521 41.6537 71.6974L39.3962 71.8345C39.3962 70.8033 39.0686 70.0146 38.4136 69.4684C37.7585 68.9145 36.8345 68.6737 35.6414 68.7462C34.534 68.8134 33.6684 69.1121 33.0446 69.6422C32.4285 70.164 32.1205 70.8585 32.1205 71.7256C32.1205 72.421 32.4129 72.993 32.9978 73.4419C33.5904 73.8825 34.5925 74.2591 36.004 74.5718C37.4232 74.8841 38.5306 75.2582 39.326 75.6943C40.1292 76.122 40.7218 76.6446 41.1039 77.2621C41.4939 77.879 41.6888 78.6211 41.6888 79.4883C41.6888 80.8711 41.1507 82.0131 40.0746 82.9144C38.9984 83.8079 37.5597 84.3094 35.7583 84.4188C34.5886 84.4898 33.4969 84.3335 32.4831 83.9497C31.4694 83.5582 30.6856 82.9886 30.132 82.241C29.5861 81.4929 29.3132 80.6227 29.3132 79.6305L31.5707 79.4934C31.5707 80.5247 31.9489 81.3181 32.7054 81.8737C33.4696 82.4211 34.4872 82.6561 35.7583 82.5789C36.9436 82.5069 37.8521 82.2096 38.4838 81.6868C39.1154 81.1641 39.4312 80.4848 39.4312 79.6488C39.4312 78.8129 39.1388 78.1861 38.554 77.7685C37.9691 77.3431 36.9086 76.9544 35.3723 76.6024ZM56.3454 67.7231L50.8711 68.0556V83.2665L48.6369 83.4022V68.1913L43.1743 68.523V66.6715L56.3454 65.8715V67.7231ZM71.6453 74.0243C71.6453 75.6962 71.3646 77.1742 70.8031 78.4583C70.2417 79.7345 69.4462 80.7321 68.4169 81.4508C67.3875 82.1696 66.1866 82.5707 64.8142 82.654C63.4729 82.7355 62.2837 82.4796 61.2465 81.8863C60.2094 81.2853 59.4023 80.3929 58.8252 79.2092C58.2559 78.0172 57.9635 76.617 57.9479 75.0086V73.7781C57.9479 72.1375 58.2325 70.671 58.8018 69.3786C59.3711 68.0862 60.1743 67.0765 61.2114 66.3494C62.2564 65.6141 63.4495 65.2057 64.7908 65.1242C66.1554 65.0413 67.3563 65.3004 68.3935 65.9015C69.4384 66.4943 70.2417 67.4025 70.8031 68.6262C71.3646 69.8421 71.6453 71.2821 71.6453 72.9462V74.0243ZM69.4112 73.0584C69.4112 71.035 69.0057 69.5088 68.1946 68.48C67.3836 67.4433 66.249 66.9692 64.7908 67.0578C63.3715 67.144 62.2525 67.7549 61.4337 68.8906C60.6227 70.018 60.2055 71.5433 60.1821 73.4666V74.7205C60.1821 76.6815 60.5915 78.1996 61.4103 79.2748C62.2369 80.3418 63.3715 80.8315 64.8142 80.7439C66.2646 80.6558 67.3875 80.0602 68.183 78.9572C68.9784 77.8464 69.3878 76.302 69.4112 74.3241V73.0584ZM79.1783 75.184L73.4701 75.5307V73.7611L79.1783 73.4144V75.184ZM94.2092 78.396C93.6321 79.2592 92.825 79.9293 91.7879 80.4064C90.7585 80.8752 89.5576 81.1512 88.1852 81.2346C86.7971 81.3189 85.565 81.0695 84.4888 80.4864C83.4127 79.8955 82.5783 79.0165 81.9856 77.8494C81.4008 76.6818 81.1006 75.3055 81.085 73.7205V72.2322C81.085 69.6619 81.6815 67.6335 82.8746 66.147C84.0755 64.66 85.7599 63.8506 87.9278 63.719C89.7058 63.611 91.1367 63.9811 92.2207 64.8293C93.3046 65.6697 93.9675 66.9185 94.2092 68.5757L91.9633 68.7121C91.5422 66.4799 90.201 65.4325 87.9395 65.5698C86.4345 65.6612 85.292 66.2619 84.5122 67.3717C83.7402 68.4733 83.3503 70.0282 83.3425 72.0365V73.431C83.3425 75.3451 83.7792 76.842 84.6526 77.9218C85.526 78.9937 86.7074 79.4845 88.1969 79.394C89.0391 79.3429 89.776 79.2044 90.4076 78.9785C91.0393 78.7526 91.5617 78.4045 91.975 77.9341V74.1021L88.0331 74.3415V72.5133L94.2092 72.1382V78.396ZM109.954 62.6156V74.2171C109.946 75.827 109.439 77.1742 108.433 78.2587C107.435 79.3428 106.078 79.9994 104.362 80.2286L103.766 80.2883C101.902 80.4015 100.417 79.9878 99.3092 79.0472C98.2019 78.1067 97.6404 76.7541 97.6248 74.9894V63.3644L99.8473 63.2294V74.7841C99.8473 76.0185 100.186 76.9588 100.865 77.6051C101.543 78.2436 102.51 78.5247 103.766 78.4484C105.037 78.3712 106.008 77.9724 106.678 77.252C107.357 76.5311 107.696 75.5535 107.696 74.3191V62.7527L109.954 62.6156ZM123.125 70.9914L115.744 71.4397V77.4866L124.318 76.9658V78.8057L113.498 79.4628V62.4003L124.201 61.7503V63.6018L115.744 64.1155V69.5998L123.125 69.1516V70.9914ZM132.132 70.7256C130.205 70.2879 128.802 69.6935 127.921 68.9423C127.047 68.1829 126.61 67.2094 126.61 66.0219C126.61 64.6781 127.145 63.5363 128.213 62.5964C129.289 61.6483 130.685 61.1221 132.401 61.0179C133.57 60.9468 134.611 61.1102 135.524 61.5079C136.444 61.9051 137.154 62.487 137.653 63.2536C138.159 64.0197 138.413 64.8754 138.413 65.8207L136.155 65.9578C136.155 64.9265 135.828 64.1378 135.173 63.5917C134.518 63.0377 133.594 62.797 132.401 62.8694C131.293 62.9367 130.428 63.2354 129.804 63.7654C129.188 64.2872 128.88 64.9817 128.88 65.8489C128.88 66.5442 129.172 67.1163 129.757 67.5652C130.35 68.0057 131.352 68.3824 132.763 68.6951C134.182 69.0073 135.29 69.3815 136.085 69.8175C136.888 70.2453 137.481 70.7679 137.863 71.3853C138.253 72.0023 138.448 72.7443 138.448 73.6115C138.448 74.9943 137.91 76.1364 136.834 77.0377C135.758 77.9312 134.319 78.4326 132.518 78.542C131.348 78.6131 130.256 78.4567 129.242 78.073C128.229 77.6814 127.445 77.1118 126.891 76.3642C126.345 75.6161 126.072 74.746 126.072 73.7538L128.33 73.6167C128.33 74.6479 128.708 75.4414 129.465 75.997C130.229 76.5443 131.246 76.7794 132.518 76.7022C133.703 76.6302 134.611 76.3328 135.243 75.8101C135.875 75.2873 136.19 74.608 136.19 73.7721C136.19 72.9361 135.898 72.3094 135.313 71.8918C134.728 71.4663 133.668 71.0776 132.132 70.7256ZM153.105 61.8463L147.63 62.1788V77.3898L145.396 77.5255V62.3145L139.934 62.6463V60.7947L153.105 59.9948V61.8463Z" fill="black"/>
<path d="M58.9564 100.197C58.2415 100.24 57.6598 100.04 57.2114 99.598C56.763 99.1527 56.5388 98.5361 56.5388 97.7483V97.5823C56.5388 97.0582 56.6379 96.5852 56.8361 96.1633C57.0375 95.7379 57.317 95.399 57.6744 95.1467C58.0351 94.8909 58.4251 94.7505 58.8443 94.7256C59.5299 94.6849 60.0628 94.8795 60.443 95.3093C60.8232 95.7392 61.0133 96.3757 61.0133 97.2188V97.5948L57.4405 97.8071C57.4535 98.3271 57.6046 98.7397 57.8938 99.0448C58.1862 99.3464 58.5567 99.4839 59.0051 99.4573C59.3236 99.4384 59.5933 99.3572 59.8142 99.2139C60.0352 99.0706 60.2285 98.8865 60.3943 98.6619L60.945 99.0588C60.5031 99.7654 59.8402 100.145 58.9564 100.197ZM58.8443 95.4678C58.4803 95.4894 58.1749 95.641 57.9279 95.9226C57.6809 96.201 57.5282 96.5812 57.4697 97.0631L60.1116 96.9062V96.8378C60.0856 96.3804 59.9621 96.0329 59.7411 95.7954C59.5201 95.5546 59.2212 95.4454 58.8443 95.4678ZM65.132 98.3316C65.132 98.0874 65.0394 97.9041 64.8542 97.7817C64.6722 97.6557 64.3521 97.5576 63.8939 97.4871C63.439 97.4165 63.0767 97.3208 62.807 97.2002C62.5405 97.0793 62.3423 96.9283 62.2123 96.7472C62.0856 96.5659 62.0222 96.3451 62.0222 96.0847C62.0222 95.6517 62.2042 95.2747 62.5682 94.9536C62.9353 94.6323 63.4033 94.4548 63.9719 94.421C64.5698 94.3855 65.054 94.5113 65.4245 94.7986C65.7981 95.0856 65.985 95.47 65.985 95.9518L65.0784 96.0056C65.0784 95.7582 64.9728 95.5513 64.7616 95.3848C64.5536 95.2181 64.2904 95.1442 63.9719 95.1632C63.6437 95.1827 63.387 95.2695 63.2018 95.4238C63.0166 95.578 62.924 95.7707 62.924 96.0018C62.924 96.2199 63.0101 96.3792 63.1823 96.4796C63.3545 96.5801 63.6649 96.6674 64.1133 96.7417C64.565 96.8158 64.9305 96.9145 65.21 97.0379C65.4894 97.1612 65.6958 97.3182 65.829 97.5089C65.9655 97.6961 66.0337 97.9313 66.0337 98.2145C66.0337 98.6865 65.8453 99.0769 65.4683 99.3858C65.0914 99.6914 64.6023 99.862 64.0012 99.8978C63.5787 99.9229 63.2051 99.8702 62.8801 99.7398C62.5552 99.6093 62.3001 99.4161 62.1149 99.1602C61.9329 98.9008 61.8419 98.6149 61.8419 98.3024L62.7436 98.2488C62.7599 98.5506 62.8801 98.7843 63.1043 98.9501C63.3318 99.1123 63.6307 99.1825 64.0012 99.1605C64.3424 99.1402 64.6153 99.0556 64.82 98.9067C65.028 98.7544 65.132 98.5627 65.132 98.3316ZM68.4318 92.9744V94.2537L69.4164 94.1952V94.8934L68.4318 94.9519V98.2283C68.4318 98.4399 68.4757 98.5968 68.5634 98.699C68.6512 98.7979 68.8007 98.8411 69.0119 98.8286C69.1159 98.8224 69.2588 98.7944 69.4408 98.7445V99.4769C69.2036 99.5561 68.9729 99.6024 68.7487 99.6157C68.3457 99.6396 68.0419 99.5356 67.8372 99.3036C67.6325 99.0717 67.5301 98.7311 67.5301 98.2818V95.0055L66.5699 95.0625V94.3643L67.5301 94.3072V93.0279L68.4318 92.9744ZM70.4936 98.9407C70.4936 98.7845 70.5391 98.6516 70.6301 98.542C70.7243 98.4322 70.8641 98.3719 71.0493 98.3609C71.2345 98.3499 71.3742 98.3936 71.4685 98.4922C71.566 98.5906 71.6147 98.7179 71.6147 98.8741C71.6147 99.0239 71.566 99.1521 71.4685 99.2588C71.3742 99.3653 71.2345 99.4241 71.0493 99.4351C70.8641 99.4461 70.7243 99.4039 70.6301 99.3086C70.5391 99.2131 70.4936 99.0905 70.4936 98.9407ZM80.1397 98.8413L75.4897 99.1176V98.4681L77.9463 95.5878C78.3103 95.1528 78.5605 94.8026 78.6969 94.5374C78.8367 94.2686 78.9065 93.9959 78.9065 93.7192C78.9065 93.3481 78.7944 93.0504 78.5702 92.8261C78.346 92.6018 78.047 92.5008 77.6734 92.523C77.2249 92.5496 76.8756 92.699 76.6254 92.971C76.3784 93.2396 76.255 93.6017 76.255 94.0574L75.3532 94.111C75.3532 93.4567 75.5628 92.9153 75.982 92.4867C76.4044 92.058 76.9682 91.8227 77.6734 91.7808C78.333 91.7416 78.8545 91.8848 79.238 92.2103C79.6214 92.5326 79.8131 92.9818 79.8131 93.558C79.8131 94.2578 79.368 95.1176 78.4776 96.1373L76.5767 98.3157L80.1397 98.104V98.8413ZM85.5452 95.4879C85.5452 96.5459 85.3649 97.3427 85.0042 97.8785C84.6435 98.4142 84.0797 98.7049 83.3128 98.7504C82.5557 98.7954 81.9952 98.5781 81.6312 98.0984C81.2673 97.6154 81.0788 96.8747 81.0658 95.8761V94.6701C81.0658 93.6251 81.2462 92.8381 81.6069 92.3088C81.9675 91.7796 82.533 91.4921 83.3031 91.4463C84.0667 91.401 84.6289 91.6133 84.9896 92.0834C85.3503 92.5503 85.5355 93.2945 85.5452 94.316V95.4879ZM84.6435 94.3061C84.6435 93.5412 84.5363 92.9909 84.3218 92.6553C84.1073 92.3165 83.7678 92.1609 83.3031 92.1885C82.8417 92.2159 82.5053 92.4101 82.2941 92.7709C82.0829 93.1318 81.974 93.6737 81.9675 94.3968V95.8421C81.9675 96.6103 82.078 97.1718 82.299 97.5265C82.5232 97.8777 82.8612 98.04 83.3128 98.0131C83.758 97.9867 84.0878 97.7946 84.3023 97.4368C84.52 97.0788 84.6337 96.5284 84.6435 95.7856V94.3061ZM91.3504 98.1752L86.7004 98.4515V97.8021L89.157 94.9218C89.521 94.4867 89.7712 94.1366 89.9076 93.8713C90.0474 93.6026 90.1172 93.3299 90.1172 93.0532C90.1172 92.6821 90.0051 92.3844 89.7809 92.1601C89.5567 91.9358 89.2577 91.8347 88.8841 91.8569C88.4356 91.8836 88.0863 92.0329 87.8361 92.3049C87.5891 92.5735 87.4657 92.9357 87.4657 93.3914L86.5639 93.445C86.5639 92.7907 86.7735 92.2492 87.1927 91.8207C87.6151 91.392 88.1789 91.1566 88.8841 91.1147C89.5437 91.0756 90.0652 91.2187 90.4487 91.5442C90.8321 91.8665 91.0238 92.3157 91.0238 92.8919C91.0238 93.5918 90.5787 94.4516 89.6883 95.4713L87.7874 97.6496L91.3504 97.4379V98.1752ZM95.2693 97.9424L94.3627 97.9963V91.9758L92.5446 92.7527V91.9324L95.1279 90.8073L95.2693 90.7989V97.9424Z" fill="black"/>
<path d="M120.323 44.669L125.208 43.9973C125.528 43.9526 125.528 43.5132 125.208 43.5076L120.302 43.4181C120.198 43.4153 120.095 43.4181 119.988 43.4237L115.008 43.7203C114.946 43.3509 114.872 42.9871 114.786 42.6317L119.97 42.3239C120.089 42.3183 120.204 42.3043 120.323 42.2903L125.208 41.6186C125.528 41.5739 125.528 41.1345 125.208 41.1289L120.302 41.0394C120.198 41.0366 120.095 41.0394 119.988 41.045L114.418 41.3752L112.67 41.4787L107.195 41.8033C104.954 41.9377 103.106 43.6084 102.794 45.6624L96.4407 45.0775C93.7462 44.8285 91.0191 44.7865 88.292 44.9488L31.8621 48.2958C30.3753 48.3853 29.1023 49.3116 28.5563 50.5569C28.5325 50.6073 28.5118 50.6605 28.491 50.7164C28.4702 50.7668 28.4524 50.82 28.4346 50.876C28.31 51.2565 28.2565 51.6567 28.2773 52.0681C28.3782 53.8731 30.04 55.1632 31.9659 55.0485L87.6243 51.7435C90.7936 51.556 93.9569 51.1278 97.0876 50.4674L102.753 49.2724C102.883 51.2677 104.64 52.7509 106.797 52.6222L112.67 52.2724L114.418 52.1688L119.967 51.8386C120.086 51.833 120.201 51.819 120.32 51.805L125.205 51.1334C125.525 51.0886 125.525 50.6493 125.205 50.6437L120.299 50.5541C120.196 50.5513 120.092 50.5541 119.985 50.5597L114.78 50.8676C114.866 50.5038 114.94 50.1316 115.002 49.7538L119.964 49.4599C120.083 49.4543 120.198 49.4403 120.317 49.4264L125.202 48.7547C125.522 48.7099 125.522 48.2706 125.202 48.265L120.296 48.1754C120.193 48.1726 120.089 48.1754 119.982 48.181L115.169 48.4665C115.204 48.1027 115.228 47.7333 115.243 47.3611L119.961 47.0812C120.08 47.0756 120.195 47.0616 120.314 47.0477L125.199 46.376C125.519 46.3313 125.519 45.8919 125.199 45.8863L120.293 45.7967C120.19 45.7939 120.086 45.7968 119.979 45.8023L115.24 46.085C115.228 45.7128 115.201 45.349 115.169 44.988L119.961 44.7025C120.089 44.697 120.204 44.6858 120.323 44.669Z" fill="black"/>
<path d="M29.5771 107.699L63.2552 105.698L84.6568 104.427L121.863 102.216C123.347 102.127 124.623 102.905 125.166 104.086C125.19 104.133 125.211 104.184 125.231 104.237C125.252 104.285 125.27 104.338 125.288 104.391C125.409 104.755 125.466 105.149 125.442 105.563C125.341 107.382 123.676 108.868 121.753 108.983L79.3302 111.502C78.2678 111.566 76.9354 112.193 76.9354 113.195C76.9354 115.627 74.419 115.344 72.1103 115.481L36.895 113.673C32.1351 113.522 28.2744 113.511 28.2744 109.003C28.2774 108.326 28.859 107.743 29.5771 107.699Z" fill="black"/>
<path d="M28.2769 101.592L52.8358 100.134V99.6279L28.2769 101.086V101.592Z" fill="black"/>
<path d="M28.2769 99.4684L52.8358 98.0076V97.5039L28.2769 98.9619V99.4684Z" fill="black"/>
<path d="M28.2769 97.3416L52.8358 95.8836V95.3771L28.2769 96.8351V97.3416Z" fill="black"/>
<path d="M98.5112 97.42L123.07 95.962V95.4554L98.5112 96.9134V97.42Z" fill="black"/>
<path d="M98.5112 95.2958L123.07 93.8378V93.3313L98.5112 94.7893V95.2958Z" fill="black"/>
<path d="M98.5112 93.1719L123.07 91.7139V91.2074L98.5112 92.6654V93.1719Z" fill="black"/>
<path d="M14.7959 97.6382C24.2207 120.765 48.4532 136.181 76.864 134.497C105.275 132.809 129.507 114.513 138.932 90.2671" stroke="black" stroke-width="4" stroke-miterlimit="10" stroke-linecap="round"/>
<path d="M15.2202 52.6669C24.9328 28.9528 48.8716 11.1658 76.861 9.50351C104.853 7.84123 128.789 22.785 138.502 45.3462" stroke="black" stroke-width="4" stroke-miterlimit="10" stroke-linecap="round"/>
<path d="M6.5166 98.1307C16.2737 125.379 44.0821 143.804 76.8641 141.859C109.646 139.912 137.451 118.184 147.212 89.7745" stroke="black" stroke-width="4" stroke-miterlimit="10" stroke-linecap="round"/>
<path d="M6.89062 53.1623C16.9712 25.2785 44.4918 4.06335 76.8612 2.14081C109.231 0.218265 136.751 18.1648 146.832 44.8509" stroke="black" stroke-width="4" stroke-miterlimit="10" stroke-linecap="round"/>
</svg>
