<svg width="60" height="60" viewBox="0 0 60 60" fill="none" xmlns="http://www.w3.org/2000/svg">
<path fill-rule="evenodd" clip-rule="evenodd" d="M6 0H54C57.3139 0 60 2.68608 60 6V54C60 57.3139 57.3139 60 54 60H6C2.68608 60 0 57.3139 0 54V6C0 2.68608 2.68608 0 6 0Z" fill="#010101"/>
<path fill-rule="evenodd" clip-rule="evenodd" d="M37.6752 55.2001C39.5009 55.2001 40.981 53.732 40.981 51.9212C40.981 50.1104 39.5009 48.6421 37.6752 48.6421H37.1772C39.0029 48.6421 40.483 50.1104 40.483 51.9212C40.483 53.732 39.0029 55.2001 37.1772 55.2001H37.6752Z" fill="#EE1D51"/>
<path fill-rule="evenodd" clip-rule="evenodd" d="M37.1321 48.6421H36.6341C34.8084 48.6421 33.3281 50.1104 33.3281 51.9212C33.3281 53.732 34.8084 55.2001 36.6341 55.2001H37.1321C35.3062 55.2001 33.8261 53.732 33.8261 51.9212C33.8261 50.1104 35.3062 48.6421 37.1321 48.6421Z" fill="#66C8CF"/>
<path d="M37.1546 53.5155C38.0426 53.5155 38.7624 52.8017 38.7624 51.9212C38.7624 51.0407 38.0426 50.3269 37.1546 50.3269C36.2667 50.3269 35.5469 51.0407 35.5469 51.9212C35.5469 52.8017 36.2667 53.5155 37.1546 53.5155Z" fill="#010101"/>
<path fill-rule="evenodd" clip-rule="evenodd" d="M12 47.1602V48.8222H13.9469V55.1553H15.8945V48.867H17.4792L18.0226 47.1602H12ZM27.9396 47.1602V48.8222H29.8865V55.1553H31.8341V48.867H33.4188L33.9622 47.1602H27.9396ZM18.3852 48.1034C18.3852 47.5826 18.8102 47.1602 19.3354 47.1602C19.861 47.1602 20.2865 47.5826 20.2865 48.1034C20.2865 48.6242 19.8612 49.0466 19.3354 49.0466C18.8102 49.0463 18.3852 48.6242 18.3852 48.1034ZM18.3852 49.7205H20.2865V55.1553H18.3852V49.7205ZM21.1018 47.1602V55.1553H23.0038V53.0894L23.5925 52.5498L25.4489 55.2002H27.4865L24.8146 51.3374L27.2146 49.0014H24.9053L23.0038 50.8878V47.1602H21.1018ZM41.6146 47.1602V55.1553H43.5168V53.0894L44.1053 52.5498L45.9622 55.2002H48L45.3281 51.3374L47.7281 49.0014H45.4188L43.5168 50.8878V47.1602H41.6146Z" fill="white"/>
<path fill-rule="evenodd" clip-rule="evenodd" d="M38.6802 19.4847C41.3067 21.3612 44.5246 22.4655 47.9998 22.4655V15.7812C47.3421 15.7815 46.6861 15.7129 46.0426 15.5765V20.838C42.5677 20.838 39.3502 19.7338 36.7229 17.8572V31.4976C36.7229 38.3213 31.1885 43.8526 24.3617 43.8526C21.8146 43.8526 19.447 43.0829 17.4802 41.7629C19.7249 44.0568 22.8553 45.48 26.3185 45.48C33.1458 45.48 38.6804 39.9488 38.6804 33.1248V19.4847H38.6802ZM41.0946 12.7412C39.7522 11.2755 38.871 9.38117 38.6802 7.28693V6.42725H36.8254C37.2922 9.08885 38.8846 11.3628 41.0946 12.7412ZM21.7981 36.5268C21.0482 35.544 20.6428 34.3416 20.6446 33.1054C20.6446 29.9844 23.1761 27.4541 26.2993 27.4541C26.8812 27.4537 27.4598 27.543 28.0145 27.7188V20.8853C27.3663 20.7966 26.7122 20.7589 26.0581 20.7728V26.0916C25.5031 25.9158 24.9243 25.8265 24.3421 25.8269C21.2189 25.8269 18.6877 28.3572 18.6877 31.4784C18.6877 33.6852 19.9529 35.5961 21.7981 36.5268Z" fill="#EE1D52"/>
<path fill-rule="evenodd" clip-rule="evenodd" d="M36.7229 17.8572C39.3502 19.7338 42.5677 20.838 46.0426 20.838V15.5765C44.1029 15.1637 42.3857 14.1504 41.0945 12.7412C38.8846 11.3628 37.2922 9.08885 36.8254 6.42725H31.9537V33.1246C31.9426 36.2369 29.4154 38.7569 26.299 38.7569C24.4625 38.7569 22.831 37.8821 21.7978 36.5268C19.9527 35.5961 18.6874 33.6852 18.6874 31.4784C18.6874 28.3572 21.2187 25.8269 24.3418 25.8269C24.9401 25.8269 25.5169 25.92 26.0578 26.0916V20.7728C19.351 20.9112 13.957 26.3885 13.957 33.1248C13.957 36.4875 15.3003 39.536 17.4802 41.7632C19.447 43.0832 21.8146 43.8528 24.3617 43.8528C31.1885 43.8528 36.7229 38.3213 36.7229 31.4979V17.8572Z" fill="white"/>
<path fill-rule="evenodd" clip-rule="evenodd" d="M46.0425 15.5765V14.1538C44.2933 14.1564 42.5786 13.6668 41.0945 12.7409C42.4082 14.1785 44.1381 15.1698 46.0425 15.5765ZM36.8253 6.42725C36.7808 6.17291 36.7466 5.91686 36.7229 5.65973V4.80005H29.9962V31.4976C29.9854 34.6097 27.4584 37.1297 24.3418 37.1297C23.4266 37.1297 22.5629 36.9128 21.7978 36.5268C22.831 37.8821 24.4625 38.7569 26.299 38.7569C29.4151 38.7569 31.9425 36.2369 31.9536 33.1246V6.42725H36.8253ZM26.058 20.7728V19.2581C25.4959 19.1813 24.9292 19.1429 24.3619 19.1432C17.5344 19.1432 12 24.6747 12 31.4976C12 35.7754 14.1751 39.5453 17.4804 41.7629C15.3005 39.5357 13.9572 36.4872 13.9572 33.1246C13.9572 26.3885 19.351 20.9112 26.058 20.7728Z" fill="#69C9D0"/>
<path fill-rule="evenodd" clip-rule="evenodd" d="M37.1771 55.2001C39.0027 55.2001 40.4831 53.732 40.4831 51.9212C40.4831 50.1104 39.0027 48.6421 37.1771 48.6421H37.1319C35.3063 48.6421 33.8262 50.1104 33.8262 51.9212C33.8262 53.732 35.3063 55.2001 37.1319 55.2001H37.1771ZM35.547 51.9212C35.547 51.0404 36.267 50.3269 37.155 50.3269C38.0423 50.3269 38.7623 51.0404 38.7623 51.9212C38.7623 52.802 38.0423 53.516 37.155 53.516C36.267 53.5158 35.547 52.802 35.547 51.9212Z" fill="white"/>
</svg>
